<mxfile host="65bd71144e">
    <diagram id="I604HNR8jOuORXDMW3vv" name="PÃ¡gina-1">
        <mxGraphModel dx="1089" dy="459" grid="1" gridSize="10" guides="1" tooltips="1" connect="1" arrows="1" fold="1" page="1" pageScale="1" pageWidth="850" pageHeight="1100" math="0" shadow="0">
            <root>
                <mxCell id="0"/>
                <mxCell id="1" parent="0"/>
                <mxCell id="2" value="Vivienda" style="swimlane;fontStyle=0;childLayout=stackLayout;horizontal=1;startSize=30;horizontalStack=0;resizeParent=1;resizeParentMax=0;resizeLast=0;collapsible=1;marginBottom=0;whiteSpace=wrap;html=1;" vertex="1" parent="1">
                    <mxGeometry x="100" y="320" width="150" height="190" as="geometry">
                        <mxRectangle x="100" y="320" width="90" height="30" as="alternateBounds"/>
                    </mxGeometry>
                </mxCell>
                <mxCell id="5" value="ID&lt;br&gt;Cuidad&lt;br&gt;Area&lt;br&gt;Conglomerdo&lt;br&gt;panelm&lt;br&gt;Estrato&lt;br&gt;fexp&lt;br&gt;upm" style="text;strokeColor=none;fillColor=none;align=left;verticalAlign=middle;spacingLeft=4;spacingRight=4;overflow=hidden;points=[[0,0.5],[1,0.5]];portConstraint=eastwest;rotatable=0;whiteSpace=wrap;html=1;" vertex="1" parent="2">
                    <mxGeometry y="30" width="150" height="160" as="geometry"/>
                </mxCell>
                <mxCell id="7" value="Hogar" style="swimlane;fontStyle=0;childLayout=stackLayout;horizontal=1;startSize=30;horizontalStack=0;resizeParent=1;resizeParentMax=0;resizeLast=0;collapsible=1;marginBottom=0;whiteSpace=wrap;html=1;" vertex="1" parent="1">
                    <mxGeometry x="330" y="310" width="140" height="210" as="geometry"/>
                </mxCell>
                <mxCell id="8" value="ID&lt;br&gt;Cuidad&lt;br&gt;Area&lt;br&gt;Conglomerdo&lt;br&gt;panelm&lt;br&gt;Estrato&lt;br&gt;fexp&lt;br&gt;upm" style="text;strokeColor=none;fillColor=none;align=left;verticalAlign=middle;spacingLeft=4;spacingRight=4;overflow=hidden;points=[[0,0.5],[1,0.5]];portConstraint=eastwest;rotatable=0;whiteSpace=wrap;html=1;" vertex="1" parent="7">
                    <mxGeometry y="30" width="140" height="180" as="geometry"/>
                </mxCell>
            </root>
        </mxGraphModel>
    </diagram>
</mxfile>